<svg aria-hidden="true" style="width:0;height:0;position:absolute;overflow:hidden" xmlns="http://www.w3.org/2000/svg"><defs><symbol id="icon-search" viewBox="0 0 32 32"><path fill="none" stroke="#fff" style="stroke:var(--color1,#fff)" stroke-linejoin="round" stroke-linecap="round" stroke-width="2.667" d="M14.675 25.347c5.894 0 10.672-4.778 10.672-10.672S20.569 4.003 14.675 4.003v0c-5.894 0-10.672 4.778-10.672 10.672s4.778 10.672 10.672 10.672v0zm13.34 2.668-5.803-5.803"/></symbol><symbol id="icon-film" viewBox="0 0 32 32"><path fill="none" stroke="#fff" style="stroke:var(--color1,#fff)" stroke-linejoin="round" stroke-linecap="round" stroke-width="2.667" d="M26.43 2.667H5.574a2.907 2.907 0 0 0-2.907 2.907V26.43a2.907 2.907 0 0 0 2.907 2.907v0H26.43a2.907 2.907 0 0 0 2.907-2.907v0V5.574a2.907 2.907 0 0 0-2.907-2.907v0zm-17.095 0v26.671M22.67 2.667v26.671M2.667 16.002h26.671M2.667 9.335h6.668M2.667 22.67h6.668m13.335 0h6.668M22.67 9.335h6.668"/></symbol></defs></svg>