<svg aria-hidden="true" style="width:0;height:0;position:absolute;overflow:hidden" xmlns="http://www.w3.org/2000/svg"><defs><symbol id="icon-search" viewBox="0 0 32 32"><path fill="none" stroke="#fff" style="stroke:var(--color1,#fff)" stroke-linejoin="round" stroke-linecap="round" stroke-width="2.667" d="M14.675 25.347c5.894 0 10.672-4.778 10.672-10.672S20.569 4.003 14.675 4.003v0c-5.894 0-10.672 4.778-10.672 10.672s4.778 10.672 10.672 10.672v0zm13.34 2.668-5.803-5.803"/></symbol><symbol id="icon-film" viewBox="0 0 32 32"><path fill="none" stroke="#fff" style="stroke:var(--color1,#fff)" stroke-linejoin="round" stroke-linecap="round" stroke-width="2.667" d="M26.43 2.667H5.574a2.907 2.907 0 0 0-2.907 2.907V26.43a2.907 2.907 0 0 0 2.907 2.907v0H26.43a2.907 2.907 0 0 0 2.907-2.907v0V5.574a2.907 2.907 0 0 0-2.907-2.907v0zm-17.095 0v26.671M22.67 2.667v26.671M2.667 16.002h26.671M2.667 9.335h6.668M2.667 22.67h6.668m13.335 0h6.668M22.67 9.335h6.668"/></symbol><symbol id="arrow-right" viewBox="0 0 16 16"><path d="M3.333 8h9.334M8 12.667 12.667 8 8 3.333" stroke-width="1.333" stroke-linecap="round" stroke-linejoin="round"/></symbol><symbol id="arrow-left" viewBox="0 0 16 16"><path d="M12.667 8H3.333M8 12.667 3.333 8 8 3.333" stroke-width="1.333" stroke-linecap="round" stroke-linejoin="round"/></symbol><symbol id="dots" viewBox="0 0 10 3" xmlns="http://www.w3.org/2000/svg"><path d="M1.617.5c.266 0 .47.076.615.229a.773.773 0 0 1 .217.562.766.766 0 0 1-.217.557c-.144.144-.35.216-.615.216-.254 0-.455-.072-.603-.216A.743.743 0 0 1 .79 1.29c0-.227.072-.414.217-.562.144-.153.347-.229.61-.229ZM4.97.5c.265 0 .47.076.615.229a.773.773 0 0 1 .217.562.766.766 0 0 1-.217.557c-.145.144-.35.216-.615.216-.254 0-.455-.072-.604-.216a.743.743 0 0 1-.222-.557c0-.227.072-.414.216-.562C4.504.576 4.707.5 4.97.5ZM8.32.5c.266 0 .471.076.616.229a.773.773 0 0 1 .216.562.766.766 0 0 1-.216.557c-.145.144-.35.216-.616.216-.254 0-.455-.072-.603-.216a.743.743 0 0 1-.223-.557c0-.227.072-.414.217-.562C7.855.576 8.059.5 8.32.5Z"/></symbol><symbol id="icon-close" viewBox="1 0 32 32"><path d="m26.674 9.083-1.97-1.97-7.81 7.81-7.81-7.81-1.97 1.97 7.81 7.81-7.81 7.81 1.97 1.97 7.81-7.81 7.81 7.81 1.97-1.97-7.81-7.81 7.81-7.81z"/></symbol><symbol id="icon-github" viewBox="0 0 32 32"><path d="M16 .395c-8.836 0-16 7.163-16 16 0 7.069 4.585 13.067 10.942 15.182.8.148 1.094-.347 1.094-.77 0-.381-.015-1.642-.022-2.979-4.452.968-5.391-1.888-5.391-1.888-.728-1.849-1.776-2.341-1.776-2.341-1.452-.993.11-.973.11-.973 1.606.113 2.452 1.649 2.452 1.649 1.427 2.446 3.743 1.739 4.656 1.33.143-1.034.558-1.74 1.016-2.14-3.554-.404-7.29-1.777-7.29-7.907 0-1.747.625-3.174 1.649-4.295-.166-.403-.714-2.03.155-4.234 0 0 1.344-.43 4.401 1.64a15.353 15.353 0 0 1 4.005-.539c1.359.006 2.729.184 4.008.539 3.054-2.07 4.395-1.64 4.395-1.64.871 2.204.323 3.831.157 4.234 1.026 1.12 1.647 2.548 1.647 4.295 0 6.145-3.743 7.498-7.306 7.895.574.497 1.085 1.47 1.085 2.963 0 2.141-.019 3.864-.019 4.391 0 .426.288.925 1.099.768C27.421 29.457 32 23.462 32 16.395c0-8.837-7.164-16-16-16z"/></symbol><symbol id="icon-linkedin" viewBox="0 0 32 32"><path d="M31.992 32v-.001H32V20.263c0-5.741-1.236-10.164-7.948-10.164-3.227 0-5.392 1.771-6.276 3.449h-.093v-2.913h-6.364v21.364h6.627V21.42c0-2.785.528-5.479 3.977-5.479 3.399 0 3.449 3.179 3.449 5.657v10.401h6.62zM.528 10.636h6.635V32H.528V10.636zM3.843 0C1.722 0 0 1.721 0 3.843s1.721 3.879 3.843 3.879c2.121 0 3.843-1.757 3.843-3.879A3.846 3.846 0 0 0 3.843 0z"/><symbol id="icon-heart" fill="none" xmlns="http://www.w3.org/2000/svg"><path d="m7 12.88-.98-.98C2.38 8.68 0 6.51 0 3.85 0 1.68 1.68 0 3.85 0 5.04 0 6.23.56 7 1.47 7.77.56 8.96 0 10.15 0 12.32 0 14 1.68 14 3.85c0 2.66-2.38 4.83-6.02 8.05l-.98.98Z" fill="#FF6B08"/></symbol></symbol></defs></svg>